<mxfile host="www.draw.io" modified="2019-12-12T08:29:31.484Z" agent="Mozilla/5.0 (Windows NT 10.0; Win64; x64) AppleWebKit/537.36 (KHTML, like Gecko) Chrome/78.0.3904.108 Safari/537.36" etag="Vwur2T2XuXgFfrbaCf20" version="12.3.9" type="github" pages="1">
  <diagram id="K_u32Jk1sGseDTuHHuip" name="Page-1">
    <mxGraphModel dx="910" dy="523" grid="1" gridSize="10" guides="1" tooltips="1" connect="1" arrows="1" fold="1" page="1" pageScale="1" pageWidth="827" pageHeight="1169" math="0" shadow="0">
      <root>
        <mxCell id="0"/>
        <mxCell id="1" parent="0"/>
        <mxCell id="7dhJ0teCBu37PmiS7WdW-1" value="获取任务列表" style="rounded=1;whiteSpace=wrap;html=1;" vertex="1" parent="1">
          <mxGeometry x="353" y="180" width="120" height="60" as="geometry"/>
        </mxCell>
        <mxCell id="7dhJ0teCBu37PmiS7WdW-2" value="Actor" style="shape=umlActor;verticalLabelPosition=bottom;labelBackgroundColor=#ffffff;verticalAlign=top;html=1;outlineConnect=0;" vertex="1" parent="1">
          <mxGeometry x="398" y="70" width="30" height="60" as="geometry"/>
        </mxCell>
        <mxCell id="7dhJ0teCBu37PmiS7WdW-3" value="打开任务详情" style="rounded=0;whiteSpace=wrap;html=1;" vertex="1" parent="1">
          <mxGeometry x="353" y="270" width="120" height="60" as="geometry"/>
        </mxCell>
        <mxCell id="7dhJ0teCBu37PmiS7WdW-4" value="执行任务，反馈记录" style="rounded=0;whiteSpace=wrap;html=1;" vertex="1" parent="1">
          <mxGeometry x="353" y="350" width="120" height="60" as="geometry"/>
        </mxCell>
        <mxCell id="7dhJ0teCBu37PmiS7WdW-5" value="审核人查看" style="rounded=0;whiteSpace=wrap;html=1;" vertex="1" parent="1">
          <mxGeometry x="353" y="440" width="120" height="60" as="geometry"/>
        </mxCell>
        <mxCell id="7dhJ0teCBu37PmiS7WdW-8" style="edgeStyle=orthogonalEdgeStyle;rounded=0;orthogonalLoop=1;jettySize=auto;html=1;entryX=1;entryY=0.5;entryDx=0;entryDy=0;" edge="1" parent="1" source="7dhJ0teCBu37PmiS7WdW-7" target="7dhJ0teCBu37PmiS7WdW-4">
          <mxGeometry relative="1" as="geometry">
            <Array as="points">
              <mxPoint x="600" y="580"/>
              <mxPoint x="600" y="380"/>
            </Array>
          </mxGeometry>
        </mxCell>
        <mxCell id="7dhJ0teCBu37PmiS7WdW-7" value="审核" style="rhombus;whiteSpace=wrap;html=1;" vertex="1" parent="1">
          <mxGeometry x="373" y="540" width="80" height="80" as="geometry"/>
        </mxCell>
        <mxCell id="7dhJ0teCBu37PmiS7WdW-9" value="审核不通过，重新执行" style="text;html=1;strokeColor=none;fillColor=none;align=center;verticalAlign=middle;whiteSpace=wrap;rounded=0;" vertex="1" parent="1">
          <mxGeometry x="620" y="450" width="40" height="20" as="geometry"/>
        </mxCell>
        <mxCell id="7dhJ0teCBu37PmiS7WdW-11" value="判断是否达到执行总次数" style="rhombus;whiteSpace=wrap;html=1;" vertex="1" parent="1">
          <mxGeometry x="373" y="810" width="80" height="80" as="geometry"/>
        </mxCell>
        <mxCell id="7dhJ0teCBu37PmiS7WdW-13" value="未到达总次数" style="text;html=1;strokeColor=none;fillColor=none;align=center;verticalAlign=middle;whiteSpace=wrap;rounded=0;" vertex="1" parent="1">
          <mxGeometry x="200" y="500" width="40" height="20" as="geometry"/>
        </mxCell>
        <mxCell id="7dhJ0teCBu37PmiS7WdW-15" value="通过" style="text;html=1;strokeColor=none;fillColor=none;align=center;verticalAlign=middle;whiteSpace=wrap;rounded=0;" vertex="1" parent="1">
          <mxGeometry x="428" y="630" width="40" height="20" as="geometry"/>
        </mxCell>
        <mxCell id="7dhJ0teCBu37PmiS7WdW-18" value="生成任务记录" style="rounded=0;whiteSpace=wrap;html=1;" vertex="1" parent="1">
          <mxGeometry x="360" y="700" width="120" height="60" as="geometry"/>
        </mxCell>
        <mxCell id="7dhJ0teCBu37PmiS7WdW-19" value="流程进入下一个节点" style="rounded=0;whiteSpace=wrap;html=1;" vertex="1" parent="1">
          <mxGeometry x="360" y="930" width="120" height="60" as="geometry"/>
        </mxCell>
      </root>
    </mxGraphModel>
  </diagram>
</mxfile>
